Coordinates
version=1
nRows=24
nColumns=22
inDegrees=yes

Units are S.I. units (second, meters, Newtons, ...)
If the header above contains a line with 'inDegrees', this indicates whether rotational values are in degrees (yes) or radians (no).

endheader
time	pelvis_tilt	pelvis_list	pelvis_rotation	pelvis_tx	pelvis_ty	pelvis_tz	hip_flexion_r	hip_adduction_r	hip_rotation_r	knee_angle_r	ankle_angle_r	subtalar_angle_r	hip_flexion_l	hip_adduction_l	hip_rotation_l	knee_angle_l	ankle_angle_l	subtalar_angle_l	lumbar_extension	lumbar_bending	lumbar_rotation
      1.91000000	     -1.94473913	     -1.94820003	     21.45195171	      0.50376245	      0.93263552	      0.93335933	     11.84859875	     -4.83609029	      1.19021015	    -63.54569788	     -1.14029537	      6.37334891	     23.78040289	      3.54342310	     -8.37677243	    -29.87208879	      7.58778135	    -11.32057593	     -6.94784087	     -0.97077601	      1.11565496
      1.92000000	     -1.83805819	     -1.88080062	     22.51762490	      0.50956762	      0.93351534	      0.92611841	     13.11037418	     -4.55947300	      1.21780041	    -64.75234329	     -0.07818751	      6.49520800	     22.86608660	      4.16165647	     -7.68226294	    -29.41066045	      7.95917585	    -11.38899332	     -7.01184489	     -0.98505266	      0.49256746
      1.93000000	     -1.76094641	     -1.80063416	     23.59580360	      0.51526846	      0.93441082	      0.91879294	     14.38004387	     -4.34486734	      1.20966028	    -65.75903692	      0.98472875	      6.57803707	     21.91329109	      4.79074859	     -6.96097310	    -28.85554519	      8.28187423	    -11.44940498	     -7.04186052	     -1.00794888	     -0.11454891
      1.94000000	     -1.71041545	     -1.71136713	     24.68467614	      0.52088318	      0.93531549	      0.91138306	     15.64984692	     -4.19433129	      1.16515669	    -66.56518327	      2.02731094	      6.61808285	     20.91867608	      5.42633268	     -6.19766582	    -28.21020866	      8.53575826	    -11.49231117	     -7.03920749	     -1.03823842	     -0.70718709
      1.95000000	     -1.66652522	     -1.59997792	     25.74859677	      0.52641106	      0.93620199	      0.90399587	     16.90035777	     -4.08448662	      1.14938905	    -67.18795419	      3.09182563	      6.53180743	     19.89355721	      6.04292156	     -5.47305098	    -27.53852816	      8.81062381	    -11.54552208	     -7.04424663	     -1.09112664	     -1.26793190
      1.96000000	     -1.62591585	     -1.48542786	     26.80464566	      0.53188443	      0.93709955	      0.89657889	     18.11836990	     -4.00637315	      1.12943339	    -67.60712531	      4.09428338	      6.34377026	     18.81801676	      6.63985877	     -4.70891711	    -26.79849472	      9.02035785	    -11.58048302	     -7.04272211	     -1.14208757	     -1.79772711
      1.97000000	     -1.56535768	     -1.36956424	     27.83980401	      0.53729612	      0.93802235	      0.88919199	     19.27477472	     -3.92497105	      1.13426717	    -67.81384036	      5.01687876	      6.00848728	     17.69089948	      7.19436246	     -3.93013928	    -26.01878831	      9.19308724	    -11.60661090	     -7.07285031	     -1.18257310	     -2.28940874
      1.98000000	     -1.46482437	     -1.24825611	     28.82793550	      0.54271777	      0.93894267	      0.88190152	     20.35005435	     -3.80406763	      1.20077900	    -67.82513657	      5.88083634	      5.45531963	     16.51398409	      7.68602631	     -3.17341258	    -25.24635224	      9.41852335	    -11.65592577	     -7.14893328	     -1.21313042	     -2.73438907
      1.99000000	     -1.41116034	     -1.15836949	     29.79338327	      0.54807350	      0.93969203	      0.87469532	     21.45743552	     -3.66357437	      1.31631222	    -67.66790502	      6.70259394	      5.20748213	     15.41427483	      8.13598870	     -2.41472450	    -24.51007087	      9.61528374	    -11.69591276	     -7.16818955	     -1.24134706	     -3.16258478
      2.00000000	     -1.23694261	     -1.05997759	     30.73687478	      0.55348661	      0.94059796	      0.86753021	     22.36695522	     -3.44743296	      1.44242536	    -67.26972907	      7.34203000	      4.63127471	     14.16439894	      8.49879380	     -1.60811204	    -23.73989052	      9.79276970	    -11.76505142	     -7.31623742	     -1.21360721	     -3.54119719
      2.01000000	     -1.10131474	     -0.99990759	     31.67891325	      0.55882949	      0.94131118	      0.86044778	     23.29551894	     -3.20114892	      1.59543311	    -66.71059089	      7.90814592	      4.35084311	     13.00667304	      8.81748862	     -0.76345297	    -23.03652478	      9.95049644	    -11.82921803	     -7.41372553	     -1.17293325	     -3.93200022
      2.02000000	     -0.94408087	     -0.94615073	     32.60971375	      0.56418931	      0.94194132	      0.85343092	     24.15031928	     -2.91755420	      1.77124675	    -65.97457737	      8.38403773	      4.13031217	     11.84659547	      9.08446639	      0.10142966	    -22.37297496	     10.14435037	    -11.92113510	     -7.52954161	     -1.12092461	     -4.30922917
      2.03000000	     -0.79755078	     -0.90268273	     33.53735881	      0.56950880	      0.94242408	      0.84651540	     24.97167531	     -2.60398751	      1.98692963	    -65.07832239	      8.76606867	      4.00748645	     10.73975568	      9.32066264	      1.02480572	    -21.78557647	     10.37076329	    -12.02330957	     -7.64061810	     -1.07386045	     -4.69851464
      2.04000000	     -0.61831651	     -0.86471000	     34.46913461	      0.57485740	      0.94285766	      0.83963033	     25.69366392	     -2.25701797	      2.19967548	    -63.99868454	      9.03116263	      3.92052049	      9.61505232	      9.50011735	      1.97573173	    -21.22703664	     10.57431848	    -12.13427961	     -7.77723781	     -1.00523183	     -5.07459300
      2.05000000	     -0.40364495	     -0.81231792	     35.38204477	      0.58024647	      0.94325252	      0.83282136	     26.30452460	     -1.87992670	      2.43789077	    -62.74088530	      9.22282022	      3.83973506	      8.46059668	      9.62892051	      2.91451411	    -20.69140767	     10.76208357	    -12.26797724	     -7.96090445	     -0.93503772	     -5.42513464
      2.06000000	     -0.26809266	     -0.78843428	     36.32267794	      0.58554912	      0.94334365	      0.82608601	     26.96208076	     -1.51942400	      2.68826108	    -61.36646081	      9.35868495	      3.82489015	      7.45946447	      9.75854621	      3.90091011	    -20.27437965	     11.03392506	    -12.37620220	     -8.06019105	     -0.89468254	     -5.82425228
      2.07000000	     -0.11671306	     -0.75931749	     37.24471949	      0.59089088	      0.94336365	      0.81942125	     27.52689548	     -1.13338833	      2.97692929	    -59.82364938	      9.44086697	      3.83552732	      6.45863836	      9.84422142	      4.85443210	    -19.88672423	     11.29616499	    -12.48219388	     -8.17986264	     -0.85640798	     -6.19621219
      2.08000000	      0.03415990	     -0.72136119	     38.13750759	      0.59627806	      0.94329376	      0.81282540	     28.01368353	     -0.73186115	      3.32775777	    -58.12463256	      9.48800451	      3.91011680	      5.46773274	      9.89966346	      5.75709112	    -19.52069505	     11.53919753	    -12.59448916	     -8.30444691	     -0.83394423	     -6.53361313
      2.09000000	      0.12779877	     -0.71232117	     39.03744531	      0.60157756	      0.94298211	      0.80627381	     28.51495511	     -0.34434875	      3.72154208	    -56.30909512	      9.46603206	      4.05960913	      4.60850176	      9.95212463	      6.66938162	    -19.26421407	     11.83577585	    -12.71367072	     -8.36802322	     -0.82129067	     -6.88593409
      2.10000000	      0.23734292	     -0.67775483	     39.87551744	      0.60693563	      0.94264284	      0.79977069	     28.90644793	      0.05009730	      4.20877530	    -54.33826288	      9.43162318	      4.45052050	      3.71885789	      9.98399584	      7.50287553	    -18.99806662	     12.07424222	    -12.86794104	     -8.46395772	     -0.82389604	     -7.16781279
      2.11000000	      0.28272891	     -0.71012026	     40.72797404	      0.61218962	      0.94204379	      0.79327592	     29.33460249	      0.41921290	      4.69001777	    -52.24495159	      9.30006431	      4.76864005	      2.99292558	      9.99548331	      8.33255542	    -18.84059054	     12.37459118	    -13.01367084	     -8.46232089	     -0.80595411	     -7.48052908
      2.12000000	      0.34156467	     -0.70236927	     41.50423225	      0.61749086	      0.94142513	      0.78679221	     29.64272020	      0.76626763	      5.27108384	    -50.01183934	      9.20480268	      5.43356854	      2.22443195	     10.01234535	      9.08694231	    -18.66806017	     12.59475272	    -13.21541470	     -8.50338007	     -0.81070963	     -7.69832978
      2.13000000	      0.35433850	     -0.73986097	     42.26678866	      0.62274476	      0.94060115	      0.78029634	     29.95417405	      1.07036032	      5.83989923	    -47.66625606	      9.03609867	      6.03980154	      1.56115728	     10.01848810	      9.81169396	    -18.55588260	     12.87457468	    -13.42446372	     -8.47338529	     -0.80413414	     -7.91808916
      2.14000000	      0.35182290	     -0.81455838	     43.02656955	      0.62794382	      0.93962449	      0.77375121	     30.22886681	      1.33254362	      6.36753240	    -45.20566299	      8.80314610	      6.44926040	      0.97317831	     10.00221692	     10.50493870	    -18.50657214	     13.21764006	    -13.61648874	     -8.40618225	     -0.76415807	     -8.14775487
